<svg width="87" height="36" fill="none" xmlns="http://www.w3.org/2000/svg"><g clip-path="url(#a)" transform="translate(-6.5 -7)"><path fill-rule="evenodd" clip-rule="evenodd" d="M24.5 7h51c9.941 0 18 8.059 18 18s-8.059 18-18 18h-51c-9.941 0-18-8.059-18-18s8.059-18 18-18zm0 1.591C15.438 8.591 8.091 15.938 8.091 25c0 9.062 7.347 16.409 16.409 16.409h51c9.062 0 16.409-7.347 16.409-16.409 0-9.062-7.347-16.409-16.409-16.409Z" fill="#000"/><path d="M25.395 13.961c-6.042 0-10.94 4.898-10.94 10.94 0 6.041 4.898 10.939 10.94 10.939 6.041 0 10.94-4.898 10.94-10.94 0-6.041-4.899-10.939-10.94-10.939z" fill="#000"/><path d="M26.937 31.475h2.285V18.348h-3.324c-3.343 0-5.1 1.719-5.1 4.25 0 2.02.963 3.21 2.682 4.438l-2.984 4.439h2.474l3.324-4.968-1.152-.774c-1.398-.944-2.077-1.681-2.077-3.268 0-1.397.982-2.342 2.852-2.342h1.02z" fill="#fff"/><path fill-rule="evenodd" clip-rule="evenodd" d="M74.34 32.846v.01h-3.192V16.561h4.93c1.295 0 2.49.14 3.574.422 1.084.281 2.028.733 2.841 1.355.803.623 1.436 1.456 1.888 2.48.452 1.034.683 2.3.683 3.795 0 1.777-.402 3.284-1.195 4.498-.793 1.215-1.888 2.149-3.273 2.781-1.386.633-2.952.954-4.7.954h-1.555zm0-2.39V18.952h1.456c1.165 0 2.21.17 3.113.512a4.205 4.205 0 0 1 2.128 1.757c.512.833.773 1.948.773 3.353 0 1.305-.26 2.39-.783 3.263a4.955 4.955 0 0 1-2.188 1.968c-.934.442-2.018.653-3.253.653H74.34Z" fill="#000"/><path d="M68.337 32.856V16.561h-3.163v16.295ZM37.826 24.9c0-5.222 3.658-9.587 8.553-10.675l.5 2.24A8.64 8.64 0 1 0 57.406 24.9h2.3c0 6.042-4.898 10.94-10.94 10.94-6.041 0-10.94-4.898-10.94-10.94z" fill="#000"/><path d="M48.765 13.961v2.298a8.644 8.644 0 0 1 8.435 6.756l2.243-.5c-1.088-4.895-5.456-8.554-10.678-8.554Zm0 17.407a6.469 6.469 0 0 0 5.94-3.906l-2.106-.918a4.171 4.171 0 0 1-7.647.047l-2.107.918a6.469 6.469 0 0 0 5.92 3.859z" fill="#000"/></g><defs><clipPath id="a"><path fill="#fff" d="M6 7h88v36H6Z"/></clipPath></defs></svg>
